<?xml version="1.0" standalone="no"?>
<!DOCTYPE svg PUBLIC "-//W3C//DTD SVG 20010904//EN"
 "http://www.w3.org/TR/2001/REC-SVG-20010904/DTD/svg10.dtd">
<svg version="1.0" xmlns="http://www.w3.org/2000/svg"
 width="192.000000pt" height="192.000000pt" viewBox="0 0 192.000000 192.000000"
 preserveAspectRatio="xMidYMid meet">
<metadata>
Created by potrace 1.11, written by Peter Selinger 2001-2013
</metadata>
<g transform="translate(0.000000,192.000000) scale(0.100000,-0.100000)"
fill="#000000" stroke="none">
<path d="M1064 1815 c-4 -9 -19 -15 -38 -16 -31 -1 -31 -1 9 -14 34 -11 36
-13 14 -14 -48 -2 -62 -78 -19 -101 48 -26 100 26 71 72 -6 10 -9 23 -5 29 3
5 0 16 -6 24 -10 11 -10 15 -1 15 7 0 9 5 6 10 -9 15 -25 12 -31 -5z m21 -84
c9 -29 -5 -52 -29 -49 -37 5 -34 68 3 68 11 0 22 -8 26 -19z"/>
<path d="M823 1774 c-4 -11 -13 -14 -30 -9 -18 4 -24 2 -20 -7 2 -7 16 -12 31
-11 34 2 57 -37 36 -62 -18 -22 -26 -19 -49 20 -25 43 -62 48 -87 10 -15 -23
-15 -27 0 -50 18 -27 57 -33 75 -12 6 8 23 12 40 9 16 -2 31 0 35 6 3 5 30 7
61 5 51 -3 56 -2 67 22 14 31 -3 75 -29 75 -13 0 -14 -3 -5 -12 18 -18 15 -68
-3 -68 -9 0 -15 9 -15 24 0 24 -23 56 -41 56 -5 0 -9 -4 -9 -10 0 -5 4 -10 9
-10 11 0 21 -38 14 -56 -7 -20 -23 -17 -23 4 0 10 -9 28 -21 41 -17 18 -18 25
-9 36 10 12 9 15 -4 15 -9 0 -19 -7 -23 -16z m-65 -56 c16 -16 15 -55 -2 -61
-18 -7 -36 12 -36 38 0 35 17 44 38 23z"/>
<path d="M1203 1743 c1 -5 -8 -18 -20 -30 -13 -13 -23 -31 -23 -42 0 -19 22
-43 36 -40 5 1 17 -1 27 -5 37 -17 75 29 55 67 -8 15 -5 20 12 24 16 4 18 8 9
14 -7 4 -22 3 -33 -3 -15 -8 -22 -7 -31 6 -12 16 -37 23 -32 9z m41 -39 c20
-8 21 -48 1 -64 -13 -10 -15 -9 -15 9 0 22 -16 29 -22 9 -2 -6 -9 -8 -16 -4
-8 5 -8 13 0 31 11 25 24 30 52 19z"/>
<path d="M1130 1720 c-6 -11 -7 -37 -4 -60 4 -27 3 -40 -5 -40 -6 0 -11 7 -11
16 0 10 -7 14 -22 12 -33 -4 -28 -30 6 -39 45 -12 58 4 50 62 -5 34 -3 49 5
49 6 0 11 5 11 10 0 17 -19 11 -30 -10z m-30 -84 c0 -3 -4 -8 -10 -11 -5 -3
-10 -1 -10 4 0 6 5 11 10 11 6 0 10 -2 10 -4z"/>
<path d="M611 1693 c-5 -10 -13 -15 -17 -11 -11 12 -34 -12 -34 -37 0 -27 29
-55 58 -55 11 0 33 10 47 23 26 22 26 23 10 60 -17 40 -47 50 -64 20z m39 -14
c0 -6 -4 -7 -10 -4 -5 3 -10 11 -10 16 0 6 5 7 10 4 6 -3 10 -11 10 -16z m-55
-19 c3 -5 1 -10 -4 -10 -6 0 -11 5 -11 10 0 6 2 10 4 10 3 0 8 -4 11 -10z m39
-11 c-8 -14 -24 -10 -24 6 0 9 6 12 15 9 8 -4 12 -10 9 -15z m34 -11 c-3 -7
-16 -20 -31 -28 -24 -13 -28 -13 -44 4 -17 17 -17 18 3 12 11 -3 29 0 40 9 24
18 37 19 32 3z"/>
<path d="M1370 1668 c0 -7 14 -25 32 -39 31 -26 32 -27 15 -53 -24 -35 -40
-34 -32 3 5 23 2 32 -14 40 -25 14 -27 14 -45 -5 -12 -12 -13 -20 -6 -35 6
-10 16 -19 22 -19 6 0 19 -7 29 -16 23 -20 57 -10 71 22 l11 24 23 -21 c21
-19 21 -22 6 -39 -8 -11 -20 -16 -25 -13 -6 3 -3 12 7 19 9 6 13 15 8 18 -14
8 -35 -21 -28 -39 7 -19 40 -19 56 -1 6 8 10 25 8 38 -2 14 2 22 10 21 6 -2
12 2 12 8 0 7 -9 9 -22 6 -15 -4 -33 2 -53 19 -24 19 -26 24 -12 24 10 0 15 5
12 10 -4 6 -18 9 -33 8 -17 -2 -27 2 -27 11 0 18 -25 27 -25 9z m0 -67 c0 -12
-20 -25 -27 -18 -7 7 6 27 18 27 5 0 9 -4 9 -9z"/>
<path d="M370 1589 l-34 -29 21 -22 c21 -20 23 -21 48 -4 25 17 28 17 46 0 10
-9 19 -23 19 -31 0 -16 -5 -16 -29 -1 -25 15 -53 -6 -49 -36 5 -34 37 -31 73
6 17 18 40 38 51 44 28 16 28 38 1 70 -18 20 -29 25 -43 20 -18 -8 -18 -8 3
-16 19 -8 43 -38 43 -54 0 -3 -7 -6 -15 -6 -8 0 -15 4 -15 9 0 5 -14 14 -30
21 -26 11 -33 10 -49 -4 -28 -25 -37 -19 -11 9 13 14 19 25 13 25 -6 0 -16 -7
-23 -15 -7 -8 -17 -15 -22 -15 -5 0 4 11 19 24 15 13 26 26 23 29 -3 3 -21 -8
-40 -24z m68 -118 c3 -8 -1 -12 -9 -9 -7 2 -15 10 -17 17 -3 8 1 12 9 9 7 -2
15 -10 17 -17z"/>
<path d="M868 1550 c-229 -41 -400 -187 -474 -405 -23 -69 -27 -96 -27 -190 1
-180 57 -309 185 -430 230 -217 586 -217 816 0 128 120 186 257 186 435 0 118
-21 202 -77 300 -40 71 -161 194 -183 186 -8 -3 -13 -2 -9 3 8 14 -51 47 -135
74 -84 28 -209 40 -282 27z m-90 -150 c12 -19 10 -20 -90 -21 -57 0 -112 -4
-123 -9 -12 -5 34 -9 123 -9 141 -1 142 -1 141 22 0 12 -3 16 -6 10 -2 -7 -9
-13 -14 -13 -4 0 -6 7 -3 15 4 8 15 15 26 15 12 0 17 -4 12 -12 -5 -8 -2 -9 9
-5 14 5 17 0 17 -28 l0 -35 -135 0 -134 0 -3 -137 -3 -138 -40 0 c-36 0 -40 3
-43 28 -2 18 1 27 10 27 11 0 14 27 13 131 0 121 2 132 20 143 11 6 23 16 27
23 5 7 41 11 96 12 77 1 89 -1 100 -19z m210 -30 c0 -24 -4 -30 -19 -30 -11 0
-18 4 -15 9 3 5 -1 12 -10 15 -10 4 -13 2 -8 -7 5 -8 3 -8 -7 1 -12 11 -10 16
10 32 32 23 48 17 49 -20z m122 30 c0 -5 56 -11 133 -13 l132 -3 -137 -2
c-101 -1 -138 1 -141 11 -3 6 -6 -1 -6 -18 -1 -23 -4 -27 -11 -15 -8 13 -10
12 -10 -2 0 -16 13 -18 136 -18 107 0 139 3 150 15 37 36 40 21 34 -130 -4
-66 -7 -104 -8 -85 -4 49 -13 114 -18 119 -2 2 -5 -36 -6 -85 -2 -89 -2 -89
-8 31 l-6 120 -2 -134 c-1 -74 -4 -132 -6 -130 -2 2 -6 64 -8 136 l-3 133
-137 0 -138 0 0 40 c0 38 2 40 30 40 17 0 30 -4 30 -10z m108 -47 c-21 -2 -57
-2 -80 0 -24 2 -7 4 37 4 44 0 63 -2 43 -4z m-220 -31 c-21 -4 -23 -13 -5 -30
6 -7 13 -17 13 -22 1 -6 2 -14 3 -19 0 -5 11 -7 24 -4 l22 5 -22 -16 c-13 -10
-23 -25 -23 -34 0 -13 2 -14 8 -4 8 12 42 7 42 -7 0 -4 9 -7 20 -7 11 0 20 5
20 11 0 6 18 9 46 7 25 -2 42 -7 39 -10 -3 -4 -22 -5 -42 -3 -30 2 -35 0 -30
-13 5 -14 3 -15 -13 -6 -27 15 -31 13 -24 -14 3 -13 1 -27 -6 -31 -7 -4 -14 1
-17 14 -3 12 -9 21 -14 21 -5 0 -8 5 -7 12 2 7 -10 12 -30 13 -22 0 -31 -3
-28 -11 5 -14 -13 -23 -31 -16 -7 2 -13 8 -13 14 0 14 -27 38 -34 31 -10 -10
-7 -25 4 -18 6 3 10 2 10 -3 0 -5 -12 -14 -26 -20 -14 -7 -22 -17 -19 -22 3
-6 -1 -10 -9 -10 -8 0 -18 4 -21 10 -10 16 18 63 45 77 l24 12 -24 11 -25 10
27 -5 c21 -4 28 -1 34 17 4 13 16 31 26 40 19 16 19 17 -4 20 -13 3 0 4 27 4
28 0 42 -2 33 -4z m-492 -29 c-10 -10 -19 5 -10 18 6 11 8 11 12 0 2 -7 1 -15
-2 -18z m330 5 c-17 -6 -24 -13 -17 -17 7 -5 2 -12 -14 -19 -19 -9 -24 -9 -19
-1 4 7 2 10 -5 8 -7 -3 -13 -9 -13 -14 0 -6 -4 -16 -10 -22 -14 -18 -2 -16 27
3 14 9 25 14 25 11 0 -3 -15 -15 -34 -26 -25 -16 -35 -30 -39 -58 -9 -53 4
-58 42 -19 32 33 32 34 12 41 -11 3 -26 3 -32 -1 -8 -4 -9 -3 -5 4 4 7 16 12
26 12 11 0 24 12 32 30 7 16 18 32 25 35 18 6 16 -3 -7 -32 -22 -28 -26 -53
-9 -53 8 0 8 -4 -1 -14 -9 -12 -7 -18 9 -32 l20 -18 -21 -18 c-26 -23 -43 -18
-42 11 1 20 0 20 -18 4 -12 -10 -16 -24 -12 -37 4 -15 3 -17 -4 -8 -7 10 -13
3 -25 -27 -12 -28 -21 -39 -31 -35 -9 3 -21 -5 -31 -20 -15 -23 -15 -26 0 -50
10 -14 21 -23 26 -20 16 9 9 -13 -8 -27 -14 -12 -16 -12 -11 1 3 8 -4 28 -16
45 -23 33 -32 75 -17 75 6 0 8 -8 4 -17 -5 -16 -3 -15 15 2 21 20 21 65 1 65
-5 0 -9 -10 -10 -22 -1 -22 -1 -22 -9 2 l-8 25 -2 -25 -2 -25 -8 25 c-6 17 -7
3 -5 -40 3 -43 2 -56 -4 -40 l-8 25 -5 -25 c-3 -14 -4 2 -1 35 4 53 43 165 57
165 3 0 2 -7 -1 -17 -4 -11 -3 -14 5 -9 8 5 10 1 6 -11 -4 -12 0 -10 15 7 25
31 27 47 4 29 -16 -13 -17 -12 -4 3 7 10 17 16 21 13 4 -2 18 7 30 20 13 14
20 25 16 25 -5 0 -3 7 4 15 7 8 8 15 2 15 -5 0 -15 -7 -22 -15 -7 -8 -9 -15
-5 -15 4 0 2 -7 -5 -15 -7 -9 -15 -13 -18 -10 -3 3 -15 -3 -26 -12 -12 -10 -1
4 24 31 44 47 121 95 150 95 8 0 2 -5 -14 -11z m61 -24 c-3 -3 -12 -4 -19 -1
-8 3 -5 6 6 6 11 1 17 -2 13 -5z m150 0 c-3 -3 -12 -4 -19 -1 -8 3 -5 6 6 6
11 1 17 -2 13 -5z m33 -14 c0 -5 -4 -10 -10 -10 -5 0 -10 5 -10 10 0 6 5 10
10 10 6 0 10 -4 10 -10z m120 -117 c0 -15 27 -42 43 -43 4 0 3 10 -3 23 -11
22 -11 22 5 2 27 -32 5 -115 -30 -115 -6 0 -17 17 -23 37 -15 48 -8 56 8 9 16
-50 31 -48 43 5 5 20 1 28 -22 42 -18 11 -31 13 -38 6 -7 -7 -15 -4 -24 8 -13
16 -12 17 3 5 14 -11 17 -10 23 7 3 12 3 26 -1 32 -4 8 -3 9 4 5 7 -4 12 -14
12 -23z m-200 -18 c0 -2 -5 -7 -12 -11 -7 -4 -8 -3 -4 4 5 8 -4 12 -26 13 -27
0 -29 2 -13 8 17 7 55 -2 55 -14z m127 -3 c6 -4 17 -20 23 -36 9 -24 8 -27 -5
-22 -8 3 -15 0 -15 -6 0 -9 -3 -9 -12 0 -9 9 -14 7 -24 -6 -8 -9 -13 -21 -13
-27 0 -5 6 -2 13 8 12 16 16 16 29 3 10 -11 17 -12 25 -4 12 12 42 -6 42 -25
0 -6 -7 -2 -15 9 -13 17 -14 17 -15 2 0 -9 5 -20 10 -23 17 -10 12 -45 -5 -39
-8 4 -12 11 -8 17 4 6 1 7 -6 3 -8 -5 -10 -19 -6 -36 5 -22 1 -32 -19 -48 -14
-10 -23 -22 -20 -25 4 -3 -3 -19 -15 -35 -12 -17 -21 -37 -21 -45 0 -15 -29
-27 -67 -27 -13 0 -23 -4 -23 -9 0 -13 -81 -6 -90 8 -4 7 -13 11 -21 9 -8 -2
-13 4 -13 15 1 9 -4 17 -12 17 -8 0 -14 7 -14 15 0 8 -16 25 -35 37 -32 21
-47 48 -26 48 4 0 8 14 7 30 -1 27 -4 30 -25 25 -22 -6 -23 -4 -17 32 3 21 7
43 8 50 1 7 5 10 9 7 5 -3 17 0 27 5 16 8 18 6 14 -17 -3 -24 0 -27 30 -29
l33 -2 -22 18 c-21 18 -22 19 -4 35 19 17 58 17 69 -1 7 -10 46 -33 56 -33 3
0 6 5 6 10 0 6 -7 10 -16 10 -9 0 -18 9 -21 20 -3 11 -12 20 -19 20 -8 0 -14
9 -14 20 0 23 18 27 26 5 4 -8 12 -15 20 -15 17 0 18 17 2 23 -8 3 -6 6 5 6
10 1 20 -6 23 -14 7 -17 34 -21 34 -5 0 6 7 10 15 10 8 0 15 -9 15 -20 0 -11
-6 -20 -13 -20 -7 0 -20 -9 -30 -20 -16 -19 -14 -24 8 -21 6 1 2 -5 -7 -12
-25 -19 -23 -30 2 -15 11 7 18 19 15 25 -7 19 33 37 51 22 11 -9 14 -9 14 1 0
16 31 80 39 80 3 0 11 -4 18 -8z m171 -17 c-3 -3 -9 2 -12 12 -6 14 -5 15 5 6
7 -7 10 -15 7 -18z m-241 -17 c-3 -8 -6 -5 -6 6 -1 11 2 17 5 13 3 -3 4 -12 1
-19z m353 7 c0 -9 -9 -15 -22 -14 -17 1 -19 2 -5 6 9 2 17 9 17 14 0 5 2 9 5
9 3 0 5 -7 5 -15z m-133 -57 c-3 -8 -6 -5 -6 6 -1 11 2 17 5 13 3 -3 4 -12 1
-19z m-557 -78 c0 -10 -4 -21 -9 -24 -5 -3 -8 7 -7 23 1 32 16 32 16 1z m494
21 c3 -5 -1 -14 -8 -20 -12 -10 -13 -8 -9 8 6 23 9 25 17 12z m55 -38 c-16
-21 -31 -33 -41 -33 -10 0 35 48 46 49 5 1 2 -7 -5 -16z m-662 -55 c-3 -8 -6
-5 -6 6 -1 11 2 17 5 13 3 -3 4 -12 1 -19z m40 0 c-3 -8 -6 -5 -6 6 -1 11 2
17 5 13 3 -3 4 -12 1 -19z m-57 -26 c0 -5 -13 -7 -30 -4 -35 5 -42 -14 -7 -21
18 -3 16 -5 -7 -6 -29 -1 -29 -2 -10 -17 19 -15 18 -15 -2 -5 -17 8 -24 32
-15 59 2 6 71 1 71 -6z m27 -14 c-3 -8 -6 -5 -6 6 -1 11 2 17 5 13 3 -3 4 -12
1 -19z m58 12 c-4 -6 -2 -17 5 -25 8 -10 8 -15 -1 -21 -7 -4 -9 -3 -5 4 3 5 1
12 -6 14 -11 4 -5 38 7 38 4 0 3 -5 0 -10z m585 -9 c0 -5 -12 -16 -27 -26
l-28 -17 25 25 c28 29 30 30 30 18z m-20 -50 c-5 -11 -15 -23 -21 -27 -6 -3
-3 5 6 20 20 30 30 35 15 7z m10 -25 c0 -2 -8 -10 -17 -17 -16 -13 -17 -12 -4
4 13 16 21 21 21 13z m10 -20 c0 -2 -8 -10 -17 -17 -16 -13 -17 -12 -4 4 13
16 21 21 21 13z"/>
<path d="M705 1350 l-140 -6 143 -2 c89 -1 142 2 142 8 0 6 -1 9 -2 8 -2 -1
-66 -5 -143 -8z"/>
<path d="M570 1185 c0 -98 -1 -105 -20 -105 -11 0 -20 -4 -20 -10 0 -5 11 -10
25 -10 l25 0 0 115 c0 63 -2 115 -5 115 -3 0 -5 -47 -5 -105z"/>
<path d="M550 1191 c0 -62 -4 -91 -12 -94 -8 -3 -6 -6 5 -6 15 -1 17 10 17 94
0 52 -2 95 -5 95 -3 0 -5 -40 -5 -89z"/>
<path d="M696 1139 c-23 -35 -26 -46 -19 -77 5 -19 13 -37 19 -39 16 -5 47 79
33 88 -7 4 -9 19 -6 38 4 17 5 31 3 31 -2 0 -16 -18 -30 -41z m14 -33 c0 -2
-7 -7 -16 -10 -8 -3 -12 -2 -9 4 6 10 25 14 25 6z"/>
<path d="M630 1101 c-7 -18 -10 -34 -6 -38 3 -3 6 0 6 8 0 12 2 12 9 0 13 -20
25 23 13 45 -7 13 -11 10 -22 -15z"/>
<path d="M948 1063 c6 -2 18 -2 25 0 6 3 1 5 -13 5 -14 0 -19 -2 -12 -5z"/>
<path d="M1089 1008 c-15 -10 -15 -13 0 -30 18 -21 33 -24 25 -4 -3 8 0 17 5
21 6 3 9 11 6 16 -8 11 -16 11 -36 -3z"/>
<path d="M860 967 c0 -23 4 -27 27 -27 22 0 24 2 12 13 -8 6 -20 19 -26 27
-11 12 -13 10 -13 -13z"/>
<path d="M923 974 c0 -16 13 -19 21 -5 3 5 0 11 -7 14 -8 3 -14 -1 -14 -9z"/>
<path d="M980 963 c0 -6 8 -17 18 -24 16 -13 16 -13 2 6 -8 11 -16 22 -17 24
-2 2 -3 0 -3 -6z"/>
<path d="M1025 930 c3 -5 10 -10 16 -10 5 0 9 5 9 10 0 6 -7 10 -16 10 -8 0
-12 -4 -9 -10z"/>
<path d="M972 918 c-14 -14 -16 -58 -3 -58 7 0 22 60 17 67 -1 2 -8 -3 -14 -9z"/>
<path d="M1020 859 c0 -5 5 -7 10 -4 6 3 10 8 10 11 0 2 -4 4 -10 4 -5 0 -10
-5 -10 -11z"/>
<path d="M885 830 c4 -6 1 -17 -5 -25 -7 -8 -9 -16 -4 -16 60 -8 62 -8 67 16
5 31 1 35 -35 35 -18 0 -27 -4 -23 -10z"/>
<path d="M1000 825 c-10 -12 -9 -18 4 -31 18 -18 46 -12 46 9 0 14 -19 37 -31
37 -4 0 -12 -7 -19 -15z"/>
<path d="M1550 1512 c0 -10 9 -25 20 -35 26 -22 25 -33 -5 -53 -30 -20 -44
-11 -27 16 24 38 -16 74 -49 44 -10 -9 -16 -21 -13 -26 3 -5 15 -2 25 8 25 23
37 10 14 -16 -17 -19 -17 -21 0 -40 23 -25 50 -25 75 0 14 14 18 28 14 45 -5
21 -3 24 12 18 12 -4 15 -3 10 5 -4 7 -18 12 -32 12 -17 0 -24 5 -24 20 0 11
-4 20 -10 20 -5 0 -10 -8 -10 -18z"/>
<path d="M317 1453 c-13 -12 -7 -21 11 -16 16 4 61 -32 51 -41 -10 -10 -99 18
-99 31 0 8 -5 11 -11 7 -6 -3 -8 -15 -5 -26 3 -14 -3 -27 -17 -39 -15 -13 -17
-18 -8 -19 8 0 25 9 37 21 18 17 26 19 43 10 12 -7 21 -21 21 -33 0 -19 -4
-20 -41 -14 -66 11 -104 -38 -61 -77 36 -32 82 -15 82 30 0 12 9 27 20 33 11
6 20 21 20 34 0 15 7 26 20 29 11 3 20 12 20 21 0 35 -62 71 -83 49z m-27
-151 c23 -19 21 -42 -4 -42 -23 0 -49 27 -43 44 8 21 19 20 47 -2z"/>
<path d="M1485 1380 c-9 -14 25 -60 45 -60 20 0 50 31 50 51 -1 10 -3 9 -11
-3 -5 -10 -19 -23 -31 -29 -18 -10 -20 -9 -15 5 13 32 -21 64 -38 36z"/>
<path d="M1685 1369 c-10 -15 3 -25 16 -12 7 7 7 13 1 17 -6 3 -14 1 -17 -5z"/>
<path d="M1613 1360 c-28 -11 -40 -50 -21 -64 8 -6 13 -16 11 -23 -7 -20 32
-34 62 -23 30 11 40 32 29 58 -7 15 -8 15 -11 -4 -2 -12 -16 -27 -30 -33 -29
-13 -41 -8 -25 12 14 16 6 28 -14 20 -8 -3 -14 1 -14 10 0 25 20 31 35 11 13
-18 15 -18 31 -2 14 14 15 20 4 32 -14 18 -25 19 -57 6z m47 -20 c0 -5 -5 -10
-11 -10 -5 0 -7 5 -4 10 3 6 8 10 11 10 2 0 4 -4 4 -10z"/>
<path d="M1662 1224 c-28 -19 -29 -57 -2 -84 26 -26 46 -25 76 5 22 22 26 23
31 8 6 -15 7 -14 14 3 7 17 8 17 8 2 1 -10 5 -18 10 -18 5 0 6 12 2 28 -9 32
-43 34 -69 3 -28 -33 -72 -31 -72 2 0 34 10 39 30 14 15 -18 20 -19 34 -8 20
17 20 25 0 45 -19 20 -34 20 -62 0z m58 -18 c0 -3 -4 -8 -10 -11 -5 -3 -10 -1
-10 4 0 6 5 11 10 11 6 0 10 -2 10 -4z"/>
<path d="M160 1210 c-14 -26 -5 -54 14 -47 9 4 16 -3 20 -19 4 -13 11 -24 16
-24 14 0 12 24 -2 38 -7 7 -8 12 -4 12 5 0 15 -8 22 -17 16 -23 47 -7 52 27 5
30 -4 36 -60 44 -41 6 -48 5 -58 -14z m50 -11 c0 -6 -4 -7 -10 -4 -5 3 -10 11
-10 16 0 6 5 7 10 4 6 -3 10 -11 10 -16z m44 -5 c9 -3 16 -10 16 -16 0 -14
-43 -5 -48 10 -4 13 7 15 32 6z"/>
<path d="M290 1223 c0 -7 5 -24 12 -38 10 -22 8 -29 -12 -50 -13 -14 -20 -28
-16 -32 12 -12 46 37 46 66 0 26 -29 79 -30 54z"/>
<path d="M136 1025 c-7 -19 11 -48 25 -39 12 7 11 17 -4 38 -13 18 -14 18 -21
1z"/>
<path d="M86 996 c8 -21 33 -28 30 -8 -2 9 -10 18 -19 20 -12 2 -15 -1 -11
-12z"/>
<path d="M269 708 c-1 -7 -1 -19 0 -26 2 -10 -2 -10 -18 0 -17 11 -23 10 -37
-4 -22 -22 -10 -42 16 -26 27 17 38 1 13 -17 -24 -17 -21 -45 8 -71 16 -14 23
-15 49 -4 24 10 30 19 30 41 0 16 -5 29 -12 29 -6 0 -8 -3 -5 -7 11 -10 -24
-43 -45 -43 -22 0 -24 23 -3 40 10 8 13 21 9 34 -6 20 -5 20 12 5 26 -23 64
-31 57 -13 -3 8 -13 14 -22 14 -22 0 -41 19 -35 35 3 7 1 16 -5 20 -6 3 -12 0
-12 -7z"/>
<path d="M1632 688 c-20 -26 -53 -100 -47 -106 3 -4 10 -1 14 6 6 10 13 11 34
1 45 -20 32 -35 -28 -35 -48 1 -55 4 -55 21 0 16 -2 17 -10 5 -5 -8 -7 -24 -4
-36 4 -15 -4 -32 -25 -55 -17 -18 -34 -42 -37 -52 -7 -24 22 -57 51 -57 25 0
55 29 55 53 0 9 5 17 10 17 20 0 50 40 50 67 0 14 3 23 7 20 10 -11 33 14 33
36 0 22 -26 46 -52 47 -15 0 -16 3 -5 26 l12 27 5 -24 c7 -28 38 -32 53 -7 9
13 7 22 -7 37 -22 24 -39 27 -54 9z m48 -38 c0 -5 -4 -10 -9 -10 -6 0 -13 5
-16 10 -3 6 1 10 9 10 9 0 16 -4 16 -10z m-79 -120 c23 -13 25 -45 4 -54 -8
-3 -26 -1 -39 6 -21 9 -23 14 -14 34 12 27 20 29 49 14z m-60 -70 c23 -13 25
-48 3 -57 -9 -3 -24 3 -37 15 -17 17 -18 23 -7 36 15 19 16 19 41 6z"/>
<path d="M370 587 c0 -5 9 -22 21 -39 12 -16 18 -32 15 -35 -4 -4 -13 2 -21
14 -8 11 -23 23 -34 26 -27 7 -61 -19 -61 -47 0 -26 44 -76 67 -76 18 0 73 59
73 78 0 9 6 12 16 8 10 -4 14 -1 12 6 -3 7 -13 15 -24 17 -10 1 -29 15 -41 30
-12 14 -22 22 -23 18z m8 -86 c4 -25 -11 -41 -40 -41 -22 0 -33 37 -17 56 18
22 53 13 57 -15z"/>
<path d="M380 405 c-18 -43 -48 -65 -36 -27 4 11 -1 25 -12 36 -17 15 -20 15
-32 1 -12 -14 -9 -21 19 -48 l32 -32 25 28 c13 15 24 34 24 41 0 8 6 19 14 25
11 9 17 8 28 -7 7 -10 22 -23 33 -29 24 -11 87 -2 67 10 -7 5 -26 6 -42 2 -23
-5 -30 -3 -30 9 0 17 -29 36 -55 36 -9 0 -24 -18 -35 -45z m-50 -5 c0 -5 -4
-10 -10 -10 -5 0 -10 5 -10 10 0 6 5 10 10 10 6 0 10 -4 10 -10z"/>
<path d="M415 384 c-17 -18 -16 -35 3 -42 7 -2 12 3 12 11 0 8 7 18 16 21 13
5 14 1 9 -24 -8 -38 8 -60 46 -60 38 0 62 33 47 66 -13 28 -28 32 -21 5 5 -20
-20 -51 -43 -51 -17 0 -17 5 -4 30 8 15 5 23 -12 40 -26 24 -32 25 -53 4z"/>
<path d="M1407 393 c-13 -12 -7 -21 12 -16 12 3 24 -3 35 -18 23 -34 3 -49
-27 -21 -13 12 -34 22 -46 22 -16 0 -21 4 -17 15 12 32 -16 13 -30 -20 -8 -20
-19 -33 -24 -30 -6 3 -18 2 -27 -4 -17 -9 -17 -10 0 -17 12 -4 29 1 47 15 36
26 56 27 70 2 14 -27 13 -41 -5 -41 -8 0 -15 5 -15 10 0 14 -43 13 -58 -2 -30
-30 2 -74 37 -50 9 7 26 16 38 22 12 5 27 19 33 30 6 12 14 19 17 16 10 -9 43
25 43 44 0 34 -61 65 -83 43z m-47 -137 c-13 -13 -35 7 -25 24 5 8 11 8 21 -1
10 -8 12 -15 4 -23z"/>
<path d="M562 308 c-33 -33 2 -88 54 -88 55 0 72 43 32 80 -24 22 -68 26 -86
8z m66 -10 c30 -30 0 -78 -37 -58 -25 13 -26 27 -4 52 19 21 25 22 41 6z"/>
<path d="M1153 273 c-46 -20 -83 -40 -83 -45 0 -5 5 -6 12 -2 8 5 9 2 5 -10
-8 -21 6 -51 29 -60 25 -10 82 12 89 35 9 26 -3 59 -21 59 -25 0 -15 16 19 28
47 17 53 15 26 -7 -23 -19 -23 -20 -6 -38 13 -14 21 -15 35 -7 21 14 27 50 12
70 -17 19 -22 18 -117 -23z m107 -18 c0 -8 -4 -15 -10 -15 -5 0 -10 7 -10 15
0 8 5 15 10 15 6 0 10 -7 10 -15z m-85 -50 c0 -25 -4 -30 -24 -30 -32 0 -49
28 -31 50 7 9 23 15 34 13 16 -2 21 -10 21 -33z"/>
<path d="M710 269 c0 -6 -10 -19 -21 -28 -18 -14 -20 -21 -11 -38 14 -26 64
-47 96 -41 15 3 27 0 30 -8 13 -35 76 1 76 42 0 23 -18 44 -38 44 -11 0 -12
-3 -2 -14 16 -20 9 -60 -12 -64 -15 -3 -18 4 -18 35 0 22 -5 44 -12 51 -9 9
-8 12 5 12 9 0 17 5 17 10 0 14 -33 13 -48 -2 -9 -9 -18 -9 -37 0 -17 8 -25 8
-25 1z m15 -39 c3 -5 1 -10 -4 -10 -6 0 -11 5 -11 10 0 6 2 10 4 10 3 0 8 -4
11 -10z m55 6 c0 -9 -30 -14 -35 -6 -4 6 3 10 14 10 12 0 21 -2 21 -4z m10
-26 c0 -5 -4 -10 -10 -10 -5 0 -10 5 -10 10 0 6 5 10 10 10 6 0 10 -4 10 -10z
m-27 -16 c11 -7 14 -15 9 -18 -12 -7 -57 8 -66 23 -9 14 35 10 57 -5z"/>
<path d="M953 243 c-16 -6 -17 -43 -1 -43 6 0 4 -8 -6 -19 -18 -20 -12 -51 10
-51 10 0 13 7 8 25 -4 15 -2 25 5 25 6 0 11 -9 11 -19 0 -17 18 -31 41 -31 17
0 49 40 49 60 0 44 -66 74 -117 53z m87 -54 c0 -29 -21 -52 -28 -31 -2 7 -10
19 -18 26 -11 12 -11 15 1 20 8 3 15 13 15 22 0 13 3 14 15 4 8 -7 15 -25 15
-41z m-55 31 c-3 -5 -10 -10 -16 -10 -5 0 -9 5 -9 10 0 6 7 10 16 10 8 0 12
-4 9 -10z"/>
</g>
</svg>
